<svg xmlns="http://www.w3.org/2000/svg" width="14.38" height="14.38" viewBox="0 0 14.38 14.38">
  <path id="call" d="M14.918,11.351c-.025-.021-2.9-2.069-3.676-1.941-.374.066-.588.322-1.017.833q-.178.213-.364.42a5.972,5.972,0,0,1-.791-.322,6.567,6.567,0,0,1-3.03-3.03,5.972,5.972,0,0,1-.322-.791c.141-.129.338-.3.423-.366.509-.427.764-.641.83-1.016.136-.776-1.92-3.649-1.941-3.675A1.1,1.1,0,0,0,4.212,1C3.379,1,1,4.085,1,4.605c0,.03.044,3.1,3.829,6.951,3.846,3.781,6.916,3.825,6.946,3.825.52,0,3.605-2.379,3.605-3.212a1.1,1.1,0,0,0-.463-.818Zm-3.2,3.068c-.416-.035-2.995-.375-6.216-3.539C2.326,7.642,2,5.059,1.962,4.659A12.968,12.968,0,0,1,4.218,1.993c.019.019.045.048.077.085A16.965,16.965,0,0,1,6.008,4.985a5.7,5.7,0,0,1-.487.437A4.809,4.809,0,0,0,4.8,6.1a.479.479,0,0,0-.082.36,5.473,5.473,0,0,0,.463,1.266A7.531,7.531,0,0,0,8.651,11.2a5.459,5.459,0,0,0,1.266.463.479.479,0,0,0,.36-.082,4.829,4.829,0,0,0,.684-.728c.151-.179.351-.418.428-.486A16.847,16.847,0,0,1,14.3,12.085c.04.034.068.059.087.076a12.96,12.96,0,0,1-2.666,2.256Z" transform="translate(-1 -1)"/>
</svg>
