<svg xmlns="http://www.w3.org/2000/svg" width="19.977" height="13.842" viewBox="0 0 19.977 13.842">
  <g id="email" transform="translate(-9.353 -24.168)">
    <path id="Path_114900" data-name="Path 114900" d="M27.363,38.01H11.32a1.969,1.969,0,0,1-1.967-1.967V26.135a1.969,1.969,0,0,1,1.967-1.967H27.363a1.969,1.969,0,0,1,1.967,1.967v9.908a1.969,1.969,0,0,1-1.967,1.967ZM11.32,24.92A1.216,1.216,0,0,0,10.1,26.135v9.908a1.216,1.216,0,0,0,1.215,1.215H27.363a1.216,1.216,0,0,0,1.215-1.215V26.135a1.216,1.216,0,0,0-1.215-1.215Z" transform="translate(0)"/>
    <path id="Path_114901" data-name="Path 114901" d="M22.284,35.37a.376.376,0,0,1-.249-.094l-9.059-8,.5-.564,8.81,7.778,8.81-7.777.5.564-9.059,8A.375.375,0,0,1,22.284,35.37Z" transform="translate(-2.942 -2.069)"/>
    <path id="Path_114902" data-name="Path 114902" d="M11.888,61.548l6.085-6.934.566.5-6.085,6.934ZM24.28,55.1l.565-.5,6.086,6.934-.565.5Z" transform="translate(-2.059 -24.718)"/>
  </g>
</svg>
