<svg xmlns="http://www.w3.org/2000/svg" width="25.6" height="16" viewBox="0 0 25.6 16">
  <path id="eyes" d="M12.8,40C4.425,40,.273,32.7.1,32.389a.8.8,0,0,1,0-.777C.273,31.3,4.425,24,12.8,24s12.527,7.3,12.7,7.611a.8.8,0,0,1,0,.777C25.327,32.7,21.175,40,12.8,40ZM1.741,32c.952,1.442,4.688,6.4,11.059,6.4,6.391,0,10.111-4.955,11.059-6.4-.952-1.442-4.688-6.4-11.059-6.4C6.409,25.6,2.689,30.555,1.741,32ZM12.8,36.8A4.8,4.8,0,1,1,17.6,32,4.805,4.805,0,0,1,12.8,36.8Zm0-8A3.2,3.2,0,1,0,16,32,3.2,3.2,0,0,0,12.8,28.8Z" transform="translate(0 -24)" fill="#777575"/>
</svg>
