<svg xmlns="http://www.w3.org/2000/svg" width="17.283" height="15.842" viewBox="0 0 17.283 15.842">
  <path id="heart_img" d="M12.53,0A4.762,4.762,0,0,0,8.641,2.024,4.761,4.761,0,0,0,4.753,0,5.032,5.032,0,0,0,0,5.041c0,2.617,1.478,5.312,4.273,7.795A22.99,22.99,0,0,0,8.509,15.81a.289.289,0,0,0,.264,0,22.991,22.991,0,0,0,4.234-2.975c2.8-2.482,4.275-5.178,4.275-7.795A5.032,5.032,0,0,0,12.53,0ZM8.641,15.227C7.583,14.643.576,10.564.576,5.041A4.441,4.441,0,0,1,4.753.576,4.185,4.185,0,0,1,8.39,2.705a.3.3,0,0,0,.5,0A4.185,4.185,0,0,1,12.53.576a4.441,4.441,0,0,1,4.177,4.465C16.707,10.564,9.7,14.643,8.641,15.227Zm0,0"/>
</svg>
