<svg id="left_icon" xmlns="http://www.w3.org/2000/svg" width="20.865" height="11.823" viewBox="0 0 20.865 11.823">
  <g id="Group_65026" data-name="Group 65026" transform="translate(0 0)">
    <path id="Path_52072" data-name="Path 52072" d="M.239,137.237h0L4.5,132.278a.734.734,0,0,1,1.153,0,1.071,1.071,0,0,1,0,1.348l-2.859,3.329H20.05a.965.965,0,0,1,0,1.907H2.789l2.859,3.329a1.071,1.071,0,0,1,0,1.348.734.734,0,0,1-1.153,0L.24,138.587h0a1.072,1.072,0,0,1,0-1.35Z" transform="translate(0 -132)" fill="#1c9fbd"/>
  </g>
</svg>
