<svg xmlns="http://www.w3.org/2000/svg" width="13.346" height="12.753" viewBox="0 0 13.346 12.753">
  <path id="link" d="M40.414,31.787v4.935H37.553v-4.6c0-1.156-.413-1.946-1.449-1.946a1.565,1.565,0,0,0-1.468,1.046,1.958,1.958,0,0,0-.095.7v4.806H31.68s.038-7.8,0-8.605h2.862v1.219c-.006.01-.014.019-.019.028h.019v-.028a2.841,2.841,0,0,1,2.579-1.421C39,27.915,40.414,29.145,40.414,31.787ZM28.687,23.969a1.491,1.491,0,1,0-.038,2.974h.019a1.492,1.492,0,1,0,.019-2.974ZM27.238,36.722H30.1V28.117h-2.86Z" transform="translate(-27.068 -23.969)"/>
</svg>
