<svg xmlns="http://www.w3.org/2000/svg" width="11.94" height="16.98" viewBox="0 0 11.94 16.98">
  <g id="location" transform="translate(-3.055 -0.088)">
    <g id="Group_65112" data-name="Group 65112" transform="translate(3.555 0.588)">
      <path id="location-2" data-name="location" d="M-214.529-626.685c-1.989-2.984-5.47-7.029-5.47-10.51a5.477,5.477,0,0,1,5.47-5.47,5.477,5.477,0,0,1,5.47,5.47c0,1.946-1.088,4.068-2.562,6.337C-212.485-629.523-213.652-628-214.529-626.685Z" transform="translate(219.999 642.665)" fill="none" stroke="#ffcc29" stroke-linecap="round" stroke-linejoin="round" stroke-miterlimit="10" stroke-width="1"/>
      <path id="Path_114813" data-name="Path 114813" d="M-97.513-195.027A2.489,2.489,0,0,1-100-197.513,2.489,2.489,0,0,1-97.513-200a2.489,2.489,0,0,1,2.486,2.486A2.489,2.489,0,0,1-97.513-195.027Z" transform="translate(102.984 202.983)" fill="none" stroke="#ffcc29" stroke-linecap="round" stroke-linejoin="round" stroke-miterlimit="10" stroke-width="1"/>
    </g>
  </g>
</svg>
