<svg xmlns="http://www.w3.org/2000/svg" width="14.25" height="16.213" viewBox="0 0 14.25 16.213">
  <path id="remove" d="M31.988,4.75l.841,10.156a1.432,1.432,0,0,0,1.419,1.307H42a1.432,1.432,0,0,0,1.419-1.307L44.261,4.75Zm3.761,9.563a.475.475,0,0,1-.474-.445L34.8,6.2a.475.475,0,0,1,.444-.5.468.468,0,0,1,.5.444l.475,7.663A.475.475,0,0,1,35.749,14.313Zm2.85-.475a.475.475,0,1,1-.95,0V6.175a.475.475,0,1,1,.95,0ZM41.449,6.2l-.475,7.663a.475.475,0,0,1-.948-.059L40.5,6.145A.483.483,0,0,1,41,5.7.475.475,0,0,1,41.449,6.2ZM44.3,1.9H41.45V1.425A1.427,1.427,0,0,0,40.025,0h-3.8A1.427,1.427,0,0,0,34.8,1.425V1.9H31.95a.95.95,0,0,0,0,1.9H44.3a.95.95,0,1,0,0-1.9Zm-3.8,0H35.75V1.425A.475.475,0,0,1,36.225.95h3.8a.475.475,0,0,1,.475.475Z" transform="translate(-31)" fill="red"/>
</svg>
