<svg xmlns="http://www.w3.org/2000/svg" width="21.049" height="21.5" viewBox="0 0 21.049 21.5">
  <g id="shop" transform="translate(-1.25 -1.25)">
    <path id="Path_51250" data-name="Path 51250" d="M2,2H3.74A1.85,1.85,0,0,1,5.58,4l-.83,9.96a2.8,2.8,0,0,0,2.79,3.03H18.19A2.877,2.877,0,0,0,21,14.38l.54-7.5a2.773,2.773,0,0,0-2.81-3.01H5.82" fill="none" stroke="#000" stroke-linecap="round" stroke-linejoin="round" stroke-miterlimit="10" stroke-width="1.5"/>
    <path id="Path_51251" data-name="Path 51251" d="M16.25,22A1.25,1.25,0,1,0,15,20.75,1.25,1.25,0,0,0,16.25,22Z" fill="none" stroke="#000" stroke-linecap="round" stroke-linejoin="round" stroke-miterlimit="10" stroke-width="1.5"/>
    <path id="Path_51252" data-name="Path 51252" d="M8.25,22A1.25,1.25,0,1,0,7,20.75,1.25,1.25,0,0,0,8.25,22Z" fill="none" stroke="#000" stroke-linecap="round" stroke-linejoin="round" stroke-miterlimit="10" stroke-width="1.5"/>
    <path id="Path_51253" data-name="Path 51253" d="M9,8H21" fill="none" stroke="#000" stroke-linecap="round" stroke-linejoin="round" stroke-miterlimit="10" stroke-width="1.5"/>
  </g>
</svg>
