<svg xmlns="http://www.w3.org/2000/svg" width="14.324" height="14.303" viewBox="0 0 14.324 14.303">
  <g id="staar_img" transform="translate(-0.001 -0.019)">
    <path id="Path_114914" data-name="Path 114914" d="M13.945,5.131l-4.4-.673L7.567.254a.466.466,0,0,0-.81,0l-1.973,4.2-4.4.673a.448.448,0,0,0-.252.755l3.2,3.279L2.571,13.8a.448.448,0,0,0,.658.464l3.933-2.174L11.1,14.265a.448.448,0,0,0,.658-.464L11,9.166l3.2-3.279a.448.448,0,0,0-.252-.756Z" transform="translate(0)" fill="#2b9804"/>
  </g>
</svg>
