<svg xmlns="http://www.w3.org/2000/svg" width="13.175" height="15.867" viewBox="0 0 13.175 15.867">
  <g id="user" transform="translate(-12.402 -4.31)">
    <path id="Path_114919" data-name="Path 114919" d="M18.988,12.08A3.885,3.885,0,1,0,15.1,8.2,3.89,3.89,0,0,0,18.988,12.08Zm0-7.245a3.36,3.36,0,1,1-3.36,3.36A3.363,3.363,0,0,1,18.988,4.835ZM13.542,20.177H24.436a1.144,1.144,0,0,0,.871-.4,1.122,1.122,0,0,0,.257-.9,6.656,6.656,0,0,0-13.148,0,1.116,1.116,0,0,0,.257.9,1.139,1.139,0,0,0,.871.4Zm-.608-1.221a6.131,6.131,0,0,1,12.111,0,.582.582,0,0,1-.137.478.616.616,0,0,1-.471.217h-10.9a.621.621,0,0,1-.471-.217A.582.582,0,0,1,12.934,18.956Z" transform="translate(0)"/>
  </g>
</svg>
