<svg xmlns="http://www.w3.org/2000/svg" width="33.791" height="33.938" viewBox="0 0 33.791 33.938">
  <g id="what_icon" transform="translate(-0.001)">
    <path id="Path_52074" data-name="Path 52074" d="M.723,33.938a.722.722,0,0,1-.7-.913l2.206-8.057a16.829,16.829,0,1,1,14.731,8.691h-.007A16.862,16.862,0,0,1,9.17,31.747L.906,33.914A.727.727,0,0,1,.723,33.938Zm0,0" transform="translate(0)" fill="#e5e5e5"/>
    <path id="Path_52075" data-name="Path 52075" d="M10.9,43.388l2.285-8.343A16.106,16.106,0,1,1,27.136,43.11h-.007a16.091,16.091,0,0,1-7.7-1.96Zm8.933-5.154.489.29a13.369,13.369,0,0,0,6.813,1.866h.005A13.385,13.385,0,1,0,15.8,34.118l.318.506-1.353,4.938Zm0,0" transform="translate(-10.172 -10.173)" fill="#fff"/>
    <path id="Path_52076" data-name="Path 52076" d="M19.344,50.752,21.55,42.7a15.548,15.548,0,1,1,13.473,7.785h-.007a15.545,15.545,0,0,1-7.43-1.892Zm0,0" transform="translate(-18.061 -18.098)" fill="#64b161"/>
    <g id="Group_5014" data-name="Group 5014" transform="translate(0.723 0.722)">
      <path id="Path_52077" data-name="Path 52077" d="M10.9,43.388l2.285-8.343A16.106,16.106,0,1,1,27.136,43.11h-.007a16.091,16.091,0,0,1-7.7-1.96Zm8.933-5.154.489.29a13.369,13.369,0,0,0,6.813,1.866h.005A13.385,13.385,0,1,0,15.8,34.118l.318.506-1.353,4.938Zm0,0" transform="translate(-10.895 -10.895)" fill="#fff"/>
      <path id="Path_52078" data-name="Path 52078" d="M136.6,142.318c-.3-.67-.619-.684-.906-.7-.235-.01-.5-.01-.771-.01a1.479,1.479,0,0,0-1.073.5,4.511,4.511,0,0,0-1.409,3.356,7.828,7.828,0,0,0,1.643,4.162c.2.268,2.784,4.461,6.874,6.075,3.4,1.341,4.091,1.074,4.829,1.007a4.064,4.064,0,0,0,2.716-1.913,3.36,3.36,0,0,0,.235-1.913c-.1-.167-.369-.268-.771-.469s-2.381-1.175-2.75-1.309-.637-.2-.905.2-1.039,1.309-1.274,1.577-.47.3-.872.1a11,11,0,0,1-3.236-2,12.123,12.123,0,0,1-2.239-2.787c-.235-.4,0-.6.177-.821a12.124,12.124,0,0,0,1.006-1.376.741.741,0,0,0-.033-.705c-.1-.2-.883-2.191-1.24-2.987Zm0,0" transform="translate(-124.388 -132.948)" fill="#fff" fill-rule="evenodd"/>
    </g>
  </g>
</svg>
