<svg id="tick" xmlns="http://www.w3.org/2000/svg" width="460.24" height="460.24" viewBox="0 0 460.24 460.24">
  <path id="Path_114923" data-name="Path 114923" d="M187.777,286.5a8,8,0,0,1-11.3,0l-39.641-39.574-11.312,11.27,56.6,56.617,147.086-147.09-11.328-11.328Zm0,0" fill="#ffcc29"/>
  <path id="Path_114924" data-name="Path 114924" d="M423.129,175.426l6.3-60.387-55.48-24.687a8.009,8.009,0,0,1-4.067-4.063l-24.68-55.48-60.4,6.312a8.06,8.06,0,0,1-5.52-1.488L230.121,0,180.953,35.633a8.072,8.072,0,0,1-5.52,1.488l-60.4-6.312-24.68,55.48a7.943,7.943,0,0,1-4.062,4.055l-55.48,24.7,6.3,60.387a8.02,8.02,0,0,1-1.48,5.527L0,230.121l35.633,49.168a8.02,8.02,0,0,1,1.48,5.527L30.81,345.2l55.48,24.688a8.009,8.009,0,0,1,4.063,4.066l24.68,55.48,60.4-6.312c.27,0,.55-.043.8-.043a7.946,7.946,0,0,1,4.692,1.531l49.2,35.63,49.167-35.63a7.98,7.98,0,0,1,5.52-1.488l60.4,6.313,24.68-55.48a7.973,7.973,0,0,1,4.066-4.06l55.48-24.695-6.3-60.383a7.98,7.98,0,0,1,1.48-5.527l35.63-49.168-35.63-49.168a7.98,7.98,0,0,1-1.48-5.527Zm-76.953-2.051-158.4,158.4a8,8,0,0,1-11.312,0l-67.922-67.922a8.006,8.006,0,0,1,0-11.328l22.64-22.558a8,8,0,0,1,11.3,0l39.641,39.558,130.1-130.1a8,8,0,0,1,11.312,0l22.64,22.636a8,8,0,0,1,0,11.313Zm0,0" fill="#ffcc29"/>
</svg>
